<svg xmlns="http://www.w3.org/2000/svg" xmlns:xlink="http://www.w3.org/1999/xlink" width="956" zoomAndPan="magnify" viewBox="0 0 717 127.500001" height="170" preserveAspectRatio="xMidYMid meet" version="1.0"><defs><g/><clipPath id="0fb0f8316b"><path d="M 23.746094 26.632812 L 93.222656 26.632812 L 93.222656 100.589844 L 23.746094 100.589844 Z M 23.746094 26.632812 " clip-rule="nonzero"/></clipPath></defs><g clip-path="url(#0fb0f8316b)"><path fill="#4884fe" d="M 48.390625 86.984375 L 55.917969 79.070312 C 58.617188 79.859375 61.191406 80.851562 63.625 81.984375 L 62.261719 83.5 C 69.347656 87.054688 75.027344 91.132812 79.570312 95.304688 C 80.84375 94.535156 82.066406 93.6875 83.230469 92.773438 C 76.390625 86.441406 62.75 76.230469 45.621094 75.875 L 52.398438 68.75 C 55.199219 69.421875 57.867188 70.320312 60.394531 71.386719 L 59.492188 72.386719 C 71.042969 78.179688 78.851562 85.363281 84.101562 92.070312 C 84.96875 91.347656 85.804688 90.582031 86.601562 89.78125 C 79.511719 81.277344 66.324219 68.921875 48.113281 66.5625 L 77.804688 39.472656 C 77.804688 39.472656 85.480469 40.503906 93.179688 46.394531 C 87.015625 34.644531 74.738281 26.632812 60.597656 26.632812 C 40.269531 26.632812 23.789062 43.1875 23.789062 63.609375 C 23.789062 84.035156 40.269531 100.589844 60.597656 100.589844 C 66.796875 100.589844 72.632812 99.046875 77.757812 96.332031 C 70.414062 91.785156 59.238281 86.363281 48.390625 86.984375 " fill-opacity="1" fill-rule="nonzero"/></g><g fill="#4884fe" fill-opacity="1"><g transform="translate(106.767071, 94.877931)"><g><path d="M 16.9375 -54.046875 L 16.9375 -35.765625 L 38.453125 -35.765625 L 38.453125 -27.4375 L 16.9375 -27.4375 L 16.9375 -8.34375 L 41.140625 -8.34375 L 41.140625 0 L 6.71875 0 L 6.71875 -62.390625 L 41.140625 -62.390625 L 41.140625 -54.046875 Z M 16.9375 -54.046875 "/></g></g></g><g fill="#4884fe" fill-opacity="1"><g transform="translate(153.742809, 94.877931)"><g><path d="M 3.3125 -24.921875 C 3.3125 -29.878906 4.34375 -34.269531 6.40625 -38.09375 C 8.46875 -41.914062 11.273438 -44.890625 14.828125 -47.015625 C 18.390625 -49.140625 22.351562 -50.203125 26.71875 -50.203125 C 29.9375 -50.203125 33.113281 -49.5 36.25 -48.09375 C 39.394531 -46.6875 41.894531 -44.816406 43.75 -42.484375 L 43.75 -66.328125 L 54.046875 -66.328125 L 54.046875 0 L 43.75 0 L 43.75 -7.4375 C 42.070312 -5.050781 39.753906 -3.078125 36.796875 -1.515625 C 33.835938 0.0351562 30.445312 0.8125 26.625 0.8125 C 22.320312 0.8125 18.390625 -0.273438 14.828125 -2.453125 C 11.273438 -4.640625 8.46875 -7.691406 6.40625 -11.609375 C 4.34375 -15.523438 3.3125 -19.960938 3.3125 -24.921875 Z M 43.75 -24.734375 C 43.75 -28.140625 43.046875 -31.097656 41.640625 -33.609375 C 40.234375 -36.117188 38.394531 -38.03125 36.125 -39.34375 C 33.851562 -40.664062 31.40625 -41.328125 28.78125 -41.328125 C 26.144531 -41.328125 23.691406 -40.679688 21.421875 -39.390625 C 19.148438 -38.109375 17.3125 -36.226562 15.90625 -33.75 C 14.5 -31.269531 13.796875 -28.328125 13.796875 -24.921875 C 13.796875 -21.515625 14.5 -18.523438 15.90625 -15.953125 C 17.3125 -13.378906 19.164062 -11.421875 21.46875 -10.078125 C 23.769531 -8.734375 26.207031 -8.0625 28.78125 -8.0625 C 31.40625 -8.0625 33.851562 -8.71875 36.125 -10.03125 C 38.394531 -11.351562 40.234375 -13.28125 41.640625 -15.8125 C 43.046875 -18.351562 43.75 -21.328125 43.75 -24.734375 Z M 43.75 -24.734375 "/></g></g></g><g fill="#4884fe" fill-opacity="1"><g transform="translate(214.524391, 94.877931)"><g><path d="M 51.453125 -49.390625 L 51.453125 0 L 41.234375 0 L 41.234375 -5.828125 C 39.617188 -3.796875 37.507812 -2.195312 34.90625 -1.03125 C 32.3125 0.132812 29.550781 0.71875 26.625 0.71875 C 22.738281 0.71875 19.253906 -0.0859375 16.171875 -1.703125 C 13.097656 -3.316406 10.679688 -5.707031 8.921875 -8.875 C 7.160156 -12.039062 6.28125 -15.863281 6.28125 -20.34375 L 6.28125 -49.390625 L 16.40625 -49.390625 L 16.40625 -21.875 C 16.40625 -17.445312 17.507812 -14.050781 19.71875 -11.6875 C 21.925781 -9.332031 24.945312 -8.15625 28.78125 -8.15625 C 32.601562 -8.15625 35.632812 -9.332031 37.875 -11.6875 C 40.113281 -14.050781 41.234375 -17.445312 41.234375 -21.875 L 41.234375 -49.390625 Z M 51.453125 -49.390625 "/></g></g></g><g fill="#4884fe" fill-opacity="1"><g transform="translate(272.706172, 94.877931)"><g><path d="M 41.0625 0 L 16.9375 -27.875 L 16.9375 0 L 6.71875 0 L 6.71875 -62.296875 L 16.9375 -62.296875 L 16.9375 -33.890625 L 41.140625 -62.296875 L 53.96875 -62.296875 L 26.890625 -31.109375 L 54.40625 0 Z M 41.0625 0 "/></g></g></g><g fill="#4884fe" fill-opacity="1"><g transform="translate(329.453567, 94.877931)"><g><path d="M 11.921875 -55.9375 C 10.066406 -55.9375 8.507812 -56.5625 7.25 -57.8125 C 6 -59.070312 5.375 -60.628906 5.375 -62.484375 C 5.375 -64.335938 6 -65.890625 7.25 -67.140625 C 8.507812 -68.390625 10.066406 -69.015625 11.921875 -69.015625 C 13.710938 -69.015625 15.234375 -68.390625 16.484375 -67.140625 C 17.742188 -65.890625 18.375 -64.335938 18.375 -62.484375 C 18.375 -60.628906 17.742188 -59.070312 16.484375 -57.8125 C 15.234375 -56.5625 13.710938 -55.9375 11.921875 -55.9375 Z M 16.9375 -49.390625 L 16.9375 0 L 6.71875 0 L 6.71875 -49.390625 Z M 16.9375 -49.390625 "/></g></g></g><g fill="#4884fe" fill-opacity="1"><g transform="translate(353.120749, 94.877931)"><g><path d="M 18.640625 -41.0625 L 18.640625 -13.71875 C 18.640625 -11.863281 19.070312 -10.53125 19.9375 -9.71875 C 20.8125 -8.914062 22.289062 -8.515625 24.375 -8.515625 L 30.65625 -8.515625 L 30.65625 0 L 22.59375 0 C 17.988281 0 14.460938 -1.070312 12.015625 -3.21875 C 9.566406 -5.375 8.34375 -8.875 8.34375 -13.71875 L 8.34375 -41.0625 L 2.515625 -41.0625 L 2.515625 -49.390625 L 8.34375 -49.390625 L 8.34375 -61.671875 L 18.640625 -61.671875 L 18.640625 -49.390625 L 30.65625 -49.390625 L 30.65625 -41.0625 Z M 18.640625 -41.0625 "/></g></g></g><g fill="#000000" fill-opacity="1"><g transform="translate(411.573722, 94.877931)"><g><path d="M 42.21875 -62.484375 L 42.21875 -55.84375 L 15.0625 -55.84375 L 15.0625 -34.78125 L 37.109375 -34.78125 L 37.109375 -28.140625 L 15.0625 -28.140625 L 15.0625 0 L 6.90625 0 L 6.90625 -62.484375 Z M 42.21875 -62.484375 "/></g></g></g><g fill="#000000" fill-opacity="1"><g transform="translate(456.756495, 94.877931)"><g><path d="M 15.0625 -66.328125 L 15.0625 0 L 6.90625 0 L 6.90625 -66.328125 Z M 15.0625 -66.328125 "/></g></g></g><g fill="#000000" fill-opacity="1"><g transform="translate(478.809991, 94.877931)"><g><path d="M 50.46875 -49.125 L 50.46875 0 L 42.3125 0 L 42.3125 -7.265625 C 40.757812 -4.753906 38.59375 -2.796875 35.8125 -1.390625 C 33.03125 0.015625 29.96875 0.71875 26.625 0.71875 C 22.800781 0.71875 19.363281 -0.0703125 16.3125 -1.65625 C 13.269531 -3.238281 10.863281 -5.613281 9.09375 -8.78125 C 7.332031 -11.945312 6.453125 -15.800781 6.453125 -20.34375 L 6.453125 -49.125 L 14.515625 -49.125 L 14.515625 -21.421875 C 14.515625 -16.578125 15.738281 -12.851562 18.1875 -10.25 C 20.644531 -7.65625 23.992188 -6.359375 28.234375 -6.359375 C 32.597656 -6.359375 36.035156 -7.703125 38.546875 -10.390625 C 41.054688 -13.085938 42.3125 -17.003906 42.3125 -22.140625 L 42.3125 -49.125 Z M 50.46875 -49.125 "/></g></g></g><g fill="#000000" fill-opacity="1"><g transform="translate(536.184934, 94.877931)"><g><path d="M 16.859375 -42.40625 L 16.859375 -13.453125 C 16.859375 -11.054688 17.363281 -9.363281 18.375 -8.375 C 19.394531 -7.394531 21.160156 -6.90625 23.671875 -6.90625 L 29.671875 -6.90625 L 29.671875 0 L 22.328125 0 C 17.785156 0 14.375 -1.046875 12.09375 -3.140625 C 9.820312 -5.234375 8.6875 -8.671875 8.6875 -13.453125 L 8.6875 -42.40625 L 2.328125 -42.40625 L 2.328125 -49.125 L 8.6875 -49.125 L 8.6875 -61.5 L 16.859375 -61.5 L 16.859375 -49.125 L 29.671875 -49.125 L 29.671875 -42.40625 Z M 16.859375 -42.40625 "/></g></g></g><g fill="#000000" fill-opacity="1"><g transform="translate(568.816936, 94.877931)"><g><path d="M 16.859375 -42.40625 L 16.859375 -13.453125 C 16.859375 -11.054688 17.363281 -9.363281 18.375 -8.375 C 19.394531 -7.394531 21.160156 -6.90625 23.671875 -6.90625 L 29.671875 -6.90625 L 29.671875 0 L 22.328125 0 C 17.785156 0 14.375 -1.046875 12.09375 -3.140625 C 9.820312 -5.234375 8.6875 -8.671875 8.6875 -13.453125 L 8.6875 -42.40625 L 2.328125 -42.40625 L 2.328125 -49.125 L 8.6875 -49.125 L 8.6875 -61.5 L 16.859375 -61.5 L 16.859375 -49.125 L 29.671875 -49.125 L 29.671875 -42.40625 Z M 16.859375 -42.40625 "/></g></g></g><g fill="#000000" fill-opacity="1"><g transform="translate(601.448938, 94.877931)"><g><path d="M 51.71875 -26.4375 C 51.71875 -24.882812 51.628906 -23.242188 51.453125 -21.515625 L 12.1875 -21.515625 C 12.488281 -16.671875 14.144531 -12.890625 17.15625 -10.171875 C 20.175781 -7.453125 23.835938 -6.09375 28.140625 -6.09375 C 31.671875 -6.09375 34.613281 -6.914062 36.96875 -8.5625 C 39.332031 -10.207031 40.992188 -12.40625 41.953125 -15.15625 L 50.734375 -15.15625 C 49.421875 -10.425781 46.789062 -6.582031 42.84375 -3.625 C 38.90625 -0.664062 34.003906 0.8125 28.140625 0.8125 C 23.484375 0.8125 19.316406 -0.234375 15.640625 -2.328125 C 11.960938 -4.421875 9.078125 -7.394531 6.984375 -11.25 C 4.898438 -15.101562 3.859375 -19.570312 3.859375 -24.65625 C 3.859375 -29.726562 4.875 -34.175781 6.90625 -38 C 8.9375 -41.832031 11.785156 -44.78125 15.453125 -46.84375 C 19.128906 -48.90625 23.359375 -49.9375 28.140625 -49.9375 C 32.804688 -49.9375 36.929688 -48.914062 40.515625 -46.875 C 44.097656 -44.84375 46.859375 -42.050781 48.796875 -38.5 C 50.742188 -34.945312 51.71875 -30.925781 51.71875 -26.4375 Z M 43.296875 -28.140625 C 43.296875 -31.253906 42.609375 -33.929688 41.234375 -36.171875 C 39.859375 -38.410156 37.988281 -40.113281 35.625 -41.28125 C 33.269531 -42.445312 30.65625 -43.03125 27.78125 -43.03125 C 23.664062 -43.03125 20.15625 -41.710938 17.25 -39.078125 C 14.351562 -36.453125 12.695312 -32.804688 12.28125 -28.140625 Z M 43.296875 -28.140625 "/></g></g></g><g fill="#000000" fill-opacity="1"><g transform="translate(657.030906, 94.877931)"><g><path d="M 15.0625 -41.140625 C 16.5 -43.953125 18.546875 -46.132812 21.203125 -47.6875 C 23.859375 -49.238281 27.097656 -50.015625 30.921875 -50.015625 L 30.921875 -41.59375 L 28.78125 -41.59375 C 19.632812 -41.59375 15.0625 -36.632812 15.0625 -26.71875 L 15.0625 0 L 6.90625 0 L 6.90625 -49.125 L 15.0625 -49.125 Z M 15.0625 -41.140625 "/></g></g></g></svg>